<?xml version="1.0" encoding="utf-8"?>
<!-- Generator: Adobe Illustrator 27.5.0, SVG Export Plug-In . SVG Version: 6.00 Build 0)  -->
<svg version="1.1" id="Layer_1" xmlns="http://www.w3.org/2000/svg" xmlns:xlink="http://www.w3.org/1999/xlink" x="0px" y="0px"
	 viewBox="0 0 432 216" style="enable-background:new 0 0 432 216;" xml:space="preserve">
<g>
	<g>
		<path d="M191.2,105.7v9.7v19.5c0,3.2,3.2,6.5,6.5,6.5v1.6h-37.2v-1.6c3.2,0,6.5-3.2,6.5-6.5V24.6c0-3.2-3.2-6.5-6.5-6.5v-1.6h37.2
			v1.6c-3.2,0-6.5,3.2-6.5,6.5v30.8v32.5V105.7z M262.3,24.6v110.3c0,3.2,1.6,6.5,6.5,6.5v1.6H230v-1.6c3.2,0,6.5-3.2,6.5-6.5v-19.5
			v-26c-9.7-8.1-22.6-11.4-33.9-9.7c11.3-4.9,22.6-6.5,33.9-4.9v-3.2v-8.1v-8.1V24.6c0-3.2-3.2-6.5-6.5-6.5v-1.6h38.8v1.6
			C263.9,18.1,262.3,21.4,262.3,24.6z"/>
	</g>
	<g>
		<path d="M71.2,195.2v-19.2h2.7v8.3H85v-8.3h2.7v19.2H85v-8.4H73.9v8.4H71.2z"/>
		<path d="M114.3,195.2v-19.2h2.7v19.2H114.3z"/>
		<path d="M160,185.7v8.1c-1.3,0.6-2.5,1-3.6,1.2c-1.1,0.3-2.2,0.4-3.2,0.4c-1.2,0-2.2-0.1-3.2-0.4s-1.9-0.7-2.8-1.3
			c-1.4-0.9-2.5-2.1-3.3-3.6c-0.8-1.5-1.2-3-1.2-4.8c0-1.3,0.3-2.5,0.8-3.8c0.5-1.2,1.3-2.3,2.2-3.2c1-1,2.2-1.7,3.4-2.2
			c1.3-0.5,2.7-0.7,4.3-0.7c1.1,0,2.1,0.1,3.2,0.4c1.1,0.3,2.2,0.6,3.3,1.2v3c-1.2-0.7-2.4-1.1-3.4-1.5c-1.1-0.3-2.1-0.5-3.1-0.5
			c-2.2,0-4.1,0.7-5.6,2.1c-1.5,1.4-2.2,3.2-2.2,5.3c0,2.1,0.7,3.8,2.2,5.2s3.3,2.1,5.4,2.1c0.7,0,1.3-0.1,2-0.2
			c0.7-0.1,1.3-0.4,2-0.7v-3.7h-3.6v-2.6H160z"/>
		<path d="M186.1,195.2v-19.2h2.7v8.3h11.1v-8.3h2.7v19.2h-2.7v-8.4h-11.1v8.4H186.1z"/>
		<path d="M245.4,185.7v8.1c-1.3,0.6-2.5,1-3.6,1.2c-1.1,0.3-2.2,0.4-3.2,0.4c-1.2,0-2.2-0.1-3.2-0.4s-1.9-0.7-2.8-1.3
			c-1.4-0.9-2.5-2.1-3.3-3.6c-0.8-1.5-1.2-3-1.2-4.8c0-1.3,0.3-2.5,0.8-3.8c0.5-1.2,1.3-2.3,2.2-3.2c1-1,2.2-1.7,3.4-2.2
			c1.3-0.5,2.7-0.7,4.3-0.7c1.1,0,2.1,0.1,3.2,0.4c1.1,0.3,2.2,0.6,3.3,1.2v3c-1.2-0.7-2.4-1.1-3.4-1.5c-1.1-0.3-2.1-0.5-3.1-0.5
			c-2.2,0-4.1,0.7-5.6,2.1c-1.5,1.4-2.2,3.2-2.2,5.3c0,2.1,0.7,3.8,2.2,5.2s3.3,2.1,5.4,2.1c0.7,0,1.3-0.1,2-0.2
			c0.7-0.1,1.3-0.4,2-0.7v-3.7H239v-2.6H245.4z"/>
		<path d="M268.8,195.2l8.3-19.2h2l8.4,19.2h-2.8l-2.5-5.7H274l-2.4,5.7H268.8z M275.1,187h6l-3-6.9L275.1,187z"/>
		<path d="M314.5,195.2v-16.7h-7v-2.5h16.8v2.5h-7v16.7H314.5z"/>
		<path d="M349,195.2v-19.2h11.5v2.4h-8.8v5.8h8.6v2.5h-8.6v6h9.1v2.5H349z"/>
	</g>
</g>
</svg>
